<svg xmlns="http://www.w3.org/2000/svg" xmlns:xlink="http://www.w3.org/1999/xlink" viewBox="0 0 509.76 419.06"><defs><style>.cls-1{isolation:isolate;}.cls-2{fill:#e0e0e0;}.cls-3{fill:#b2d3ed;}.cls-4{fill:#acd29a;}.cls-5{fill:#401a4c;}.cls-6{fill:#4f8247;}.cls-7{fill:#525252;}.cls-8{fill:#fff;}.cls-9{fill:#92c677;}.cls-10{fill:#8cbc73;}.cls-11{fill:#b8aba5;}.cls-12{fill:url(#linear-gradient);}.cls-13{fill:#b7b7b3;stroke:#401a4c;stroke-miterlimit:10;stroke-width:0.57px;}.cls-14{fill:#a8958e;}.cls-15{fill:#d3d2cc;}.cls-16{fill:#2c3a64;}.cls-17{fill:#f8cba3;}.cls-18{fill:#e2469a;}.cls-19{fill:#3b438c;}.cls-20{fill:#025c95;}.cls-21,.cls-23{fill:#579bcc;}.cls-22{fill:#2abfd4;}.cls-23{opacity:0.5;}.cls-23,.cls-25,.cls-27,.cls-34,.cls-40{mix-blend-mode:multiply;}.cls-24,.cls-25,.cls-29{fill:#193157;}.cls-25{opacity:0.39;}.cls-26,.cls-27,.cls-40{fill:#38454d;}.cls-27{opacity:0.24;}.cls-28{fill:#90b4cc;}.cls-29{opacity:0.12;}.cls-30,.cls-39{fill:#a8a9ad;}.cls-30,.cls-38{opacity:0.31;}.cls-31{fill:#fedbab;}.cls-32,.cls-36{fill:#f6976c;}.cls-32{opacity:0.27;}.cls-33,.cls-34{fill:#604b46;}.cls-34{opacity:0.13;}.cls-35{fill:#223c6d;}.cls-37{fill:#abd7f2;}.cls-40{opacity:0.1;}.cls-41{fill:#903035;}</style><linearGradient id="linear-gradient" x1="213.03" y1="350.82" x2="322.97" y2="350.82" gradientUnits="userSpaceOnUse"><stop offset="0" stop-color="#9061e2"/><stop offset="0.29" stop-color="#8d5de2"/><stop offset="0.6" stop-color="#8551e2"/><stop offset="0.72" stop-color="#8049e2"/></linearGradient></defs><title>nodata-found</title><g class="cls-1"><g id="Layer_1" data-name="Layer 1"><path class="cls-2" d="M150.43,385.16S86.33,456,93.67,459.85s61.68,12.11,62.17-7.25c23.16.4,33.37,0,33.37,0S150.93,475.24,179,479.45s69.71.87,57.53-8.12-13.18-18.73-13.18-18.73L397.17,450s17.25,16,4.54,18.52-40.4,15,10.78,13.43,24.63-29.9,16.23-32.08c31.61.49,66.95,1.78,73.61.13s-13.89-7.21-26.95-24.76S150.43,385.16,150.43,385.16Z" transform="translate(-38 -63)"/><path class="cls-3" d="M523.34,365.29s15.31-88.13-16.91-101.44,6.7-98.1-55.46-113.14-32.51-109.61-138.1-83-142.7,12.65-192.1,84S116.16,256.09,80,265.93s-53.39,34.26-33.69,99.36Z" transform="translate(-38 -63)"/><path class="cls-4" d="M392.7,345.27c-4.88-38.76,7.11-69.65,18.76-53.45s3.7-24.53,6.5-43.12,12.06-16.43,16.56-5.11,11.39-12,19.81-30.47,28.61-14,24,8.94S457.57,247.82,466,255.18s13.52,22.57-7.24,33.13-12.85,25.43-6.46,27.92,12.75,20.17-12.77,36.1Z" transform="translate(-38 -63)"/><path class="cls-5" d="M463.58,222.87s-1,1.84-2.73,5.12c-.84,1.65-1.87,3.64-3,5.95s-2.37,4.94-3.74,7.78-2.8,6-4.26,9.29q-1.1,2.49-2.26,5.1l-2.27,5.36c-1.57,3.63-3.07,7.44-4.63,11.28s-3,7.81-4.54,11.74-2.93,7.92-4.37,11.81-2.71,7.78-4,11.52-2.41,7.39-3.54,10.84-2.07,6.74-3,9.76-1.81,5.79-2.49,8.27-1.32,4.63-1.83,6.4l-1.6,5.58,1.51-5.6c.47-1.79,1.06-3.95,1.72-6.43s1.5-5.27,2.39-8.31,1.84-6.33,3-9.78l3.49-10.87,3.94-11.54c1.42-3.91,2.86-7.88,4.31-11.85s3-7.87,4.61-11.72,3.1-7.64,4.69-11.26q1.19-2.73,2.31-5.36t2.29-5.09c1.48-3.31,3-6.4,4.31-9.27,2.74-5.71,5.19-10.38,6.92-13.64S463.58,222.87,463.58,222.87Z" transform="translate(-38 -63)"/><path class="cls-5" d="M427.22,252.75l0,.6c0,.39-.06,1-.06,1.68a43.6,43.6,0,0,0,.29,6,33.75,33.75,0,0,0,1.92,8.21,22.31,22.31,0,0,0,2.15,4.21,14.38,14.38,0,0,0,3.26,3.57,13.18,13.18,0,0,0,9,2.6,24.29,24.29,0,0,0,4.38-.69l2-.59,1.81-.68c.58-.22,1.11-.49,1.63-.71s1-.44,1.46-.67c.89-.47,1.7-.83,2.32-1.21l2-1.13-1.93,1.21c-.61.41-1.4.8-2.28,1.31s-1.92,1-3.06,1.49l-1.81.73-2,.65c-.7.16-1.41.36-2.15.5a17.21,17.21,0,0,1-2.3.28,14.31,14.31,0,0,1-4.84-.44,12.8,12.8,0,0,1-4.51-2.2,15.12,15.12,0,0,1-3.37-3.73,23,23,0,0,1-2.16-4.33,32.73,32.73,0,0,1-1.78-8.35c-.12-1.24-.15-2.39-.15-3.4s0-1.9.08-2.62.1-1.29.14-1.68Z" transform="translate(-38 -63)"/><path class="cls-5" d="M405.08,308l.05.69c0,.45.05,1.11.13,1.95s.17,1.85.35,3c.07.58.18,1.19.3,1.84s.24,1.32.4,2a37.23,37.23,0,0,0,1.28,4.45,32.55,32.55,0,0,0,2.17,4.68,21.44,21.44,0,0,0,3.33,4.34,18.24,18.24,0,0,0,4.56,3.31,18.59,18.59,0,0,0,5.33,1.82,25,25,0,0,0,5.48.43,36.06,36.06,0,0,0,5.13-.52,41.84,41.84,0,0,0,4.53-1c1.39-.37,2.64-.79,3.76-1.14s2.06-.75,2.85-1l2.44-1-2.41,1.09c-.77.32-1.72.71-2.81,1.14s-2.35.87-3.74,1.26a44.42,44.42,0,0,1-4.54,1.11,32.65,32.65,0,0,1-5.2.6,25.9,25.9,0,0,1-5.58-.4,19,19,0,0,1-5.5-1.83,18.54,18.54,0,0,1-4.67-3.45,21.78,21.78,0,0,1-3.39-4.47,29,29,0,0,1-2.13-4.78,38.18,38.18,0,0,1-1.2-4.52c-.15-.71-.28-1.39-.36-2.05s-.18-1.27-.23-1.85c-.14-1.17-.19-2.19-.24-3s-.05-1.51-.07-2Z" transform="translate(-38 -63)"/><path class="cls-5" d="M423.19,279.48s0,1.46.08,3.64c0,1.09.16,2.36.31,3.71a36,36,0,0,0,.71,4.19,23.71,23.71,0,0,0,1.27,4,14.85,14.85,0,0,0,1.8,3.21,12.84,12.84,0,0,0,1,1.12,9,9,0,0,0,.84.77c.5.39.81.6.81.6l-.23-.13c-.15-.09-.38-.2-.64-.38a7.68,7.68,0,0,1-.92-.71,8.3,8.3,0,0,1-1.07-1.07,13.16,13.16,0,0,1-2-3.21,23.77,23.77,0,0,1-1.37-4.1,37.16,37.16,0,0,1-.65-4.27c-.13-1.37-.14-2.66-.14-3.75A31.1,31.1,0,0,1,423.19,279.48Z" transform="translate(-38 -63)"/><path class="cls-5" d="M421.87,325.64a34,34,0,0,0,4,.88A35.49,35.49,0,0,0,430,327a24.71,24.71,0,0,0,4.75-.23,20.57,20.57,0,0,0,2.36-.49,16.63,16.63,0,0,0,2.19-.77,14.49,14.49,0,0,0,3.53-2.13c.49-.37.87-.77,1.24-1.1s.64-.68.87-1l.7-.87-.61.94c-.21.3-.49.63-.8,1a13.35,13.35,0,0,1-1.19,1.2,12.23,12.23,0,0,1-1.58,1.24,12.64,12.64,0,0,1-2,1.1,15.8,15.8,0,0,1-2.25.83,21.24,21.24,0,0,1-2.42.54,25.68,25.68,0,0,1-4.85.16,28.42,28.42,0,0,1-4.18-.61A23.12,23.12,0,0,1,421.87,325.64Z" transform="translate(-38 -63)"/><path class="cls-5" d="M449.77,234.09s-.35,1.15-.79,2.89c-.23.86-.45,1.88-.69,3s-.45,2.26-.59,3.44a24.59,24.59,0,0,0-.26,3.47,14.12,14.12,0,0,0,.31,3,10,10,0,0,0,.35,1.15,5.5,5.5,0,0,0,.41.84,3.81,3.81,0,0,0,.33.51l.12.18-.15-.16a3.19,3.19,0,0,1-.39-.47,4.76,4.76,0,0,1-.51-.81,6.66,6.66,0,0,1-.47-1.16,12,12,0,0,1-.49-3.07,23.89,23.89,0,0,1,.19-3.55c.17-1.2.41-2.38.67-3.48s.59-2.11.87-3A25.84,25.84,0,0,1,449.77,234.09Z" transform="translate(-38 -63)"/><path class="cls-5" d="M457.12,235.19a7.56,7.56,0,0,0,.87,0,9.79,9.79,0,0,0,1-.06c.38,0,.8-.11,1.27-.18a12.31,12.31,0,0,0,1.46-.39l.78-.27.78-.34a16.2,16.2,0,0,0,1.59-.84c.5-.36,1-.68,1.5-1.09A18.34,18.34,0,0,0,469,229.5l1.06-1.32c.31-.44.6-.87.86-1.26.56-.77.9-1.48,1.2-1.95s.45-.75.45-.75l-.35.8-.42.91a8.19,8.19,0,0,1-.61,1.16l-.79,1.33c-.3.46-.66.92-1,1.39a14.4,14.4,0,0,1-1.23,1.39,13.52,13.52,0,0,1-1.42,1.3c-.49.41-1,.74-1.57,1.1a18.64,18.64,0,0,1-1.67.84l-.83.33-.82.23a14,14,0,0,1-1.52.3,8.9,8.9,0,0,1-1.31.08,9.86,9.86,0,0,1-1,0A5.26,5.26,0,0,1,457.12,235.19Z" transform="translate(-38 -63)"/><path class="cls-6" d="M138.52,273.81c-11.13-20.44-11.67-31.42-2.77-40.74-11.42-15.07-4.15-41.07,8.51-48.5-10.93-24.9,8.68-38.57,18.21-37.57,3.86-30.67,40-28.74,47.26-16.87C220,119.33,246,135,236,151.11c11-4.11,24.83,14.32,17.41,23.89,8.57-1.67,18.61,15.18,10.09,24.59C275,218,270.37,289,241.51,297S145.5,325.6,138.52,273.81Z" transform="translate(-38 -63)"/><path class="cls-7" d="M233.11,320c8.42-16.23,8.84-24.94,2.1-32.35,8.64-12,3.14-32.61-6.44-38.51,8.27-19.77-6.57-30.63-13.78-29.83-2.93-24.35-30.26-22.82-35.76-13.4-7.78-8.57-27.46,3.87-19.9,16.66-8.31-3.26-18.8,11.37-13.18,19-6.48-1.32-14.08,12.06-7.63,19.53-8.69,14.62-5.19,71,16.65,77.35S227.83,361.17,233.11,320Z" transform="translate(-38 -63)"/><path class="cls-8" d="M283.05,166.91h37.2s.59-6.87-7.35-4.57-2.71-7.78-16.53-7.15S275.49,155.19,283.05,166.91Z" transform="translate(-38 -63)"/><path class="cls-7" d="M48,377.48H175.37s7.12-22-16-14.74c-11.31,3.56,9.07-31-18.39-24.46-19.11,4.54-25.81-13.55-39.75-13.27-36.65.75-11.87,29.77-34.21,27.12C48.86,350,41,364.51,48,377.48Z" transform="translate(-38 -63)"/><path class="cls-9" d="M516.19,376.89s2.18-10.16,6.17-9.74c3.69.4,3.68-8.11,7.86-7.19,3.83.84,2-7.92,5.89-6.76,3.57,1.06,3.24-5.66,5.7-4s-1.23,6-.51,8-4.78,5.66-4.25,7-2.31,6.7-5.24,9c-3.22,2.54,1.57,6.81-4.77,10.36C521.27,384.52,516.11,381.65,516.19,376.89Z" transform="translate(-38 -63)"/><path class="cls-5" d="M541.7,350.84l-1,1.23c-.64.78-1.52,1.93-2.6,3.3s-2.29,3-3.57,4.74-2.61,3.64-3.9,5.56-2.54,3.87-3.64,5.74c-.53.95-1.09,1.84-1.56,2.71s-.92,1.7-1.32,2.48l-1,2.13c-.32.62-.53,1.2-.74,1.67l-.63,1.46s.2-.54.54-1.5c.19-.47.36-1.07.65-1.72s.59-1.38.94-2.18.8-1.63,1.24-2.53,1-1.81,1.49-2.76c1.09-1.9,2.32-3.87,3.6-5.81s2.66-3.81,4-5.54,2.61-3.31,3.71-4.65C540.08,352.51,541.7,350.84,541.7,350.84Z" transform="translate(-38 -63)"/><path class="cls-9" d="M509.5,377.58s-.05-9.95,3.8-11,2.22-10.3,7.17-11.49,1-11.21,6.46-12.63,3.9-11.23,8.2-11.14-1.16,10.4.26,12.67-6.31,11-5.36,12.45-2.1,9.23-5.39,13,2.93,6.7-3.7,11.79C515.39,383.2,510.31,381.69,509.5,377.58Z" transform="translate(-38 -63)"/><path class="cls-5" d="M535.17,334.05l-1,1.94c-.62,1.25-1.52,3-2.59,5.15s-2.29,4.64-3.59,7.32c-.64,1.35-1.33,2.73-2,4.15s-1.33,2.86-2,4.32-1.31,2.89-1.92,4.33-1.21,2.86-1.77,4.24-1.07,2.73-1.57,4-.89,2.5-1.29,3.62-.7,2.18-1,3.1-.52,1.74-.66,2.42l-.5,2.13.41-2.15a23.12,23.12,0,0,1,.56-2.45c.24-.94.49-2,.87-3.14s.73-2.39,1.21-3.67.93-2.66,1.5-4,1.12-2.83,1.74-4.26,1.24-2.91,1.9-4.37,1.33-2.89,2-4.3,1.36-2.8,2-4.15c1.32-2.67,2.62-5.13,3.74-7.24s2.11-3.84,2.8-5.05Z" transform="translate(-38 -63)"/><path class="cls-9" d="M497.09,373.18s.56-15.42,5.75-16c4.81-.53,2.92-12.89,8.47-12.8,5.08.07.8-12.11,6.05-11.59,4.81.48,2.9-9.19,6.42-7.5,3.33,1.6-.25,9.13,1.09,11.77S520,346.72,521,348.55s-1.48,10.44-4.73,14.68c-3.56,4.65,3.51,9.43-3.82,16.49C505.26,382.76,498,380.13,497.09,373.18Z" transform="translate(-38 -63)"/><path class="cls-5" d="M524,327.69l-1,2.1c-.66,1.34-1.56,3.27-2.65,5.59s-2.3,5.05-3.56,8-2.56,6.09-3.79,9.27c-.59,1.6-1.21,3.19-1.78,4.77s-1.12,3.14-1.59,4.66-1,3-1.38,4.4-.8,2.74-1.12,4-.59,2.38-.84,3.39-.4,1.9-.56,2.63c-.29,1.46-.46,2.3-.46,2.3s.13-.84.37-2.32c.13-.73.23-1.64.45-2.66s.46-2.17.73-3.42.67-2.59,1-4,.85-2.9,1.31-4.44,1-3.09,1.56-4.69,1.17-3.18,1.75-4.79c1.26-3.18,2.56-6.34,3.87-9.27s2.6-5.62,3.72-7.93C522.29,330.65,524,327.69,524,327.69Z" transform="translate(-38 -63)"/><path class="cls-9" d="M484.86,376.7s-1.15-12.83,3.7-14.57,1.74-13.53,8-15.62,0-14.57,6.95-17,3.8-14.92,9.36-15.27-.35,13.54,1.73,16.31-6.94,14.92-5.55,16.66-1.7,12.14-5.54,17.35,4.52,8.33-3.48,15.61C493.08,383.3,486.36,381.91,484.86,376.7Z" transform="translate(-38 -63)"/><path class="cls-5" d="M513.2,317.71l-1.09,2.62-2.82,6.92c-1.16,2.86-2.46,6.22-3.85,9.82-.68,1.81-1.42,3.67-2.1,5.57s-1.41,3.84-2.07,5.79-1.38,3.88-2,5.81-1.24,3.82-1.81,5.66-1.08,3.64-1.57,5.34-.88,3.33-1.26,4.82-.65,2.89-.92,4.11c-.12.62-.24,1.19-.35,1.72s-.16,1-.22,1.48l-.4,2.8s.11-1,.3-2.81c.06-.45.09-.95.17-1.49s.2-1.11.3-1.73c.22-1.24.43-2.65.81-4.15s.68-3.15,1.17-4.86.91-3.53,1.5-5.37,1.13-3.76,1.78-5.69,1.28-3.89,2-5.83,1.41-3.88,2.12-5.78,1.44-3.76,2.13-5.56c1.41-3.6,2.81-6.93,4-9.78s2.28-5.19,3-6.83Z" transform="translate(-38 -63)"/><path class="cls-7" d="M428.23,387.16H546.79s6.63-20.49-14.91-13.72c-10.53,3.31,8.44-28.85-17.12-22.77-17.79,4.22-24-12.62-37-12.35-34.12.7-11,27.71-31.85,25.24C429,361.56,421.69,375.09,428.23,387.16Z" transform="translate(-38 -63)"/><path class="cls-4" d="M432.89,396.5c-12.07-38.49-3.81-71.59,12.08-57s0-25.4,0-44.65,10.8-18.47,17.79-7.69,10.81-13.86,17.16-33.87,29.87-18.47,28.6,5.39-19.07,29.25-8.26,35.4,19.06,20.79-2.54,34.64-10.17,27.71-2.55,29.25,17.8,18.48-8.26,38.49Z" transform="translate(-38 -63)"/><path class="cls-5" d="M492,261.8c-2.21,5.35-4.16,10.81-6,16.29-.94,2.74-1.88,5.48-2.75,8.24s-1.77,5.52-2.6,8.29c-3.37,11.09-6.36,22.28-9.05,33.55l-2,8.46-1,4.24-.88,4.25-1.77,8.5-1.59,8.55c-2.11,11.39-3.81,22.85-5.43,34.33.76-5.75,1.42-11.51,2.25-17.24s1.72-11.47,2.81-17.16l1.54-8.56,1.72-8.52.87-4.26.95-4.24L471,328q4.13-16.91,9.24-33.53A335.2,335.2,0,0,1,492,261.8Z" transform="translate(-38 -63)"/><path class="cls-5" d="M456.09,297.59a41.18,41.18,0,0,0,1.23,7.07,34.63,34.63,0,0,0,2.48,6.71,25.66,25.66,0,0,0,4,5.9,16.43,16.43,0,0,0,5.71,4.09,15.84,15.84,0,0,0,6.91,1.25,23.69,23.69,0,0,0,6.94-1.46,37.13,37.13,0,0,0,6.47-3.06,64.12,64.12,0,0,0,6-3.95,46.7,46.7,0,0,1-12.33,7.42,22.52,22.52,0,0,1-7.07,1.56,16.24,16.24,0,0,1-7.15-1.24,16.71,16.71,0,0,1-5.87-4.27,24.28,24.28,0,0,1-4-6.05A36.81,36.81,0,0,1,456.09,297.59Z" transform="translate(-38 -63)"/><path class="cls-5" d="M440.52,356.86a51,51,0,0,0,2.4,8.05,34.26,34.26,0,0,0,3.88,7.42,25.72,25.72,0,0,0,5.75,6,21.8,21.8,0,0,0,7.49,3.51c5.4,1.44,11.15.78,16.51-.69A73.7,73.7,0,0,0,492,374.56c-2.43,1.42-4.88,2.8-7.44,4a59.63,59.63,0,0,1-7.89,3,38.49,38.49,0,0,1-8.32,1.53,26.75,26.75,0,0,1-8.45-.71,22.49,22.49,0,0,1-7.65-3.64,25,25,0,0,1-5.81-6.16A40.9,40.9,0,0,1,440.52,356.86Z" transform="translate(-38 -63)"/><path class="cls-5" d="M456.09,325.25a52.79,52.79,0,0,0,1.25,6,36.15,36.15,0,0,0,2,5.74,20.91,20.91,0,0,0,3.16,5.15,12.77,12.77,0,0,0,4.82,3.61,10.9,10.9,0,0,1-2.79-1.3,13.34,13.34,0,0,1-2.36-2,19.71,19.71,0,0,1-3.34-5.21,32,32,0,0,1-1.92-5.87A33.15,33.15,0,0,1,456.09,325.25Z" transform="translate(-38 -63)"/><path class="cls-5" d="M462.43,372.19a46.63,46.63,0,0,0,7.28.23,33.07,33.07,0,0,0,7.15-1,20.81,20.81,0,0,0,6.58-2.88,16.31,16.31,0,0,0,4.89-5.26,15,15,0,0,1-1.95,3.1,16.91,16.91,0,0,1-2.69,2.52,20.17,20.17,0,0,1-6.68,3.06,31.53,31.53,0,0,1-7.29.93A34.9,34.9,0,0,1,462.43,372.19Z" transform="translate(-38 -63)"/><path class="cls-5" d="M478.33,275.25c-.25,1.64-.46,3.27-.6,4.91a40.23,40.23,0,0,0-.18,4.91,19.6,19.6,0,0,0,.6,4.83,8.1,8.1,0,0,0,2.41,4.17,7.36,7.36,0,0,1-2.83-4,18.55,18.55,0,0,1-.75-4.95,32.93,32.93,0,0,1,.32-5A32.32,32.32,0,0,1,478.33,275.25Z" transform="translate(-38 -63)"/><path class="cls-5" d="M486.81,275.25a15,15,0,0,0,5.24-1.37,16.61,16.61,0,0,0,4.46-3,20.6,20.6,0,0,0,3.39-4.21c.51-.75.87-1.59,1.32-2.38l1.11-2.5c-.26.87-.55,1.74-.86,2.61s-.72,1.7-1.19,2.5a16,16,0,0,1-1.54,2.31,18.13,18.13,0,0,1-1.84,2.08,16.12,16.12,0,0,1-4.68,3A12.48,12.48,0,0,1,486.81,275.25Z" transform="translate(-38 -63)"/><path class="cls-10" d="M191.34,388.15c13.38-31.36,9.16-64.23-8.45-52.31s-7-14.94-4.93-30.49c3.55-27-10.81-30.27-18.55-21.49s-10.18-4.71-17.23-21S101.1,252,102.51,271.43s19.63,25.06,7.66,30.08-23.94,17.29,0,28.58,15.79,18.5,7.34,19.75-14.9,22,14,38.31Z" transform="translate(-38 -63)"/><path class="cls-5" d="M125.85,278.37s.93,1.56,2.45,4.36c.74,1.4,1.67,3.1,2.65,5.08s2.1,4.22,3.26,6.69,2.36,5.16,3.59,8,2.52,5.91,3.75,9.09,2.5,6.46,3.74,9.82q.94,2.51,1.8,5.09t1.76,5.15c1.13,3.46,2.15,6.95,3.21,10.36s1.9,6.84,2.81,10.13,1.61,6.5,2.37,9.53,1.31,5.93,1.91,8.59,1.13,5.1,1.47,7.29.72,4.08,1,5.65c.55,3.13.86,4.92.86,4.92s-.35-1.78-.95-4.9c-.31-1.56-.68-3.46-1.1-5.63s-1-4.6-1.57-7.26-1.16-5.56-2-8.57-1.54-6.23-2.43-9.51l-2.87-10.1c-1.08-3.4-2.12-6.88-3.26-10.32l-1.73-5.16q-.84-2.58-1.77-5.1c-1.21-3.36-2.4-6.67-3.67-9.83s-2.48-6.21-3.68-9.09-2.42-5.57-3.54-8.05-2.18-4.74-3.16-6.73-1.84-3.71-2.55-5.13C126.75,280,125.85,278.37,125.85,278.37Z" transform="translate(-38 -63)"/><path class="cls-5" d="M165.64,307.54l-.06.64c0,.41-.11,1-.22,1.79a28,28,0,0,1-.63,2.73,24,24,0,0,1-1.27,3.42,21.83,21.83,0,0,1-5.41,7.33,18.86,18.86,0,0,1-4.31,2.85,21.76,21.76,0,0,1-5.07,1.7,26.66,26.66,0,0,1-5.33.41,34,34,0,0,1-5.13-.59c-.82-.17-1.63-.32-2.4-.56s-1.53-.41-2.26-.67c-1.46-.45-2.79-1-4-1.5s-2.35-1-3.3-1.54-1.81-.91-2.48-1.31L121.62,321l2.17,1.12c.68.37,1.55.75,2.52,1.21s2.11.9,3.33,1.43,2.58,1,4,1.41c.72.24,1.47.43,2.25.61s1.56.37,2.37.52a32,32,0,0,0,5,.55,26.88,26.88,0,0,0,5.21-.43,21.59,21.59,0,0,0,4.95-1.62,18.19,18.19,0,0,0,4.22-2.76,22.25,22.25,0,0,0,3.24-3.45,25.11,25.11,0,0,0,2.21-3.64,28.35,28.35,0,0,0,1.36-3.34,26.5,26.5,0,0,0,.72-2.69c.15-.76.26-1.36.3-1.78S165.64,307.54,165.64,307.54Z" transform="translate(-38 -63)"/><path class="cls-5" d="M182.89,355.84l-.2.74c-.13.48-.32,1.19-.63,2.07-.15.44-.31.93-.53,1.45s-.43,1.09-.71,1.68a27.38,27.38,0,0,1-2.13,3.82,26.67,26.67,0,0,1-3.29,4,25,25,0,0,1-4.58,3.55,30,30,0,0,1-11.89,3.92,45.47,45.47,0,0,1-6.38.22,55.19,55.19,0,0,1-6.15-.62,56.36,56.36,0,0,1-5.65-1.15c-1.78-.45-3.45-.92-5-1.42s-2.89-1-4.12-1.43l-3.12-1.24-2.69-1.16,2.73,1.07,3.15,1.14c1.24.39,2.62.88,4.15,1.32s3.19.9,5,1.32,3.66.78,5.63,1.07a54.2,54.2,0,0,0,6.09.57,45.91,45.91,0,0,0,6.3-.25,29.44,29.44,0,0,0,11.7-3.78,26.22,26.22,0,0,0,4.54-3.43,25.87,25.87,0,0,0,3.32-3.88c.44-.66.87-1.29,1.22-1.92a20.49,20.49,0,0,0,1-1.81c.31-.57.54-1.13.76-1.64s.42-1,.58-1.43c.34-.87.55-1.57.69-2.05Z" transform="translate(-38 -63)"/><path class="cls-5" d="M165.64,330.09a19.51,19.51,0,0,1-.53,3.42c-.14.51-.26,1.06-.45,1.63a18.16,18.16,0,0,1-.64,1.77c-.23.62-.55,1.21-.84,1.84s-.68,1.21-1.05,1.8a21,21,0,0,1-1.29,1.66,12.09,12.09,0,0,1-1.42,1.44l-.73.64c-.25.19-.52.34-.77.51a9.4,9.4,0,0,1-1.46.86c-.48.22-.91.42-1.3.58l-1.06.3-.92.25.88-.35,1-.39,1.24-.68a8.69,8.69,0,0,0,1.37-.9c.23-.18.49-.34.72-.55l.69-.63a12.29,12.29,0,0,0,1.35-1.43,16.24,16.24,0,0,0,1.21-1.62c.38-.57.73-1.16,1.06-1.74s.63-1.18.86-1.78.5-1.16.7-1.72.37-1.08.53-1.57c.29-1,.53-1.82.64-2.41S165.64,330.09,165.64,330.09Z" transform="translate(-38 -63)"/><path class="cls-5" d="M158.61,368.34a42.44,42.44,0,0,1-4.8.51c-1.45.07-3.15.12-5,0a47.34,47.34,0,0,1-5.67-.57c-1-.18-1.9-.38-2.83-.63a27.93,27.93,0,0,1-2.68-.85,18.91,18.91,0,0,1-2.4-1.08,19.21,19.21,0,0,1-2-1.24,13,13,0,0,1-1.53-1.27c-.44-.4-.76-.81-1.05-1.12s-.44-.61-.58-.79l-.2-.28s.3.37.87,1a12.86,12.86,0,0,0,1.1,1,19.45,19.45,0,0,0,1.57,1.17,18.7,18.7,0,0,0,2,1.13c.74.35,1.54.68,2.38,1a26.38,26.38,0,0,0,2.65.79c.91.24,1.85.42,2.79.59a48.38,48.38,0,0,0,5.59.64c1.8.1,3.48.15,4.93.13C156.68,368.51,158.61,368.34,158.61,368.34Z" transform="translate(-38 -63)"/><path class="cls-5" d="M141,289.34a17.59,17.59,0,0,1,.8,2.5,23.64,23.64,0,0,1,.51,2.65,20.91,20.91,0,0,1,.15,3.1,12.89,12.89,0,0,1-.54,3.08,7.3,7.3,0,0,1-1.29,2.42,5.47,5.47,0,0,1-.77.76,7.8,7.8,0,0,1-.68.49c-.41.22-.65.33-.65.33l.58-.42a5.69,5.69,0,0,0,.6-.55,7.41,7.41,0,0,0,.67-.81,8.16,8.16,0,0,0,.61-1.07,10.82,10.82,0,0,0,.46-1.29,11.89,11.89,0,0,0,.44-3,20.26,20.26,0,0,0-.07-3c-.09-1-.2-1.87-.33-2.64C141.23,290.36,141,289.34,141,289.34Z" transform="translate(-38 -63)"/><path class="cls-5" d="M131.6,289.34a7.71,7.71,0,0,1-.93,0,16.92,16.92,0,0,1-2.45-.19c-.5-.08-1-.18-1.62-.32a17.06,17.06,0,0,1-1.77-.5c-.59-.25-1.23-.44-1.82-.75a14.21,14.21,0,0,1-1.8-1,13.2,13.2,0,0,1-1.67-1.18,15.51,15.51,0,0,1-1.46-1.32,10.35,10.35,0,0,1-1.21-1.4,10.79,10.79,0,0,1-1-1.35,9.71,9.71,0,0,1-.7-1.2c-.17-.37-.32-.7-.45-1l-.38-.85.48.8.53.92c.2.36.51.71.79,1.12a9.24,9.24,0,0,0,1,1.27,16.52,16.52,0,0,0,1.23,1.31,14.63,14.63,0,0,0,1.45,1.25,13.07,13.07,0,0,0,1.63,1.12,14.87,14.87,0,0,0,1.73,1c.58.32,1.2.52,1.77.77s1.15.42,1.71.56a15.76,15.76,0,0,0,1.57.4,20.74,20.74,0,0,0,2.4.4C131.26,289.33,131.6,289.34,131.6,289.34Z" transform="translate(-38 -63)"/><path class="cls-11" d="M138.18,121.57H397.82a6.52,6.52,0,0,1,6.52,6.52V299.74a0,0,0,0,1,0,0H131.66a0,0,0,0,1,0,0V128.1A6.52,6.52,0,0,1,138.18,121.57Z"/><rect class="cls-8" x="144.13" y="140.27" width="247.74" height="136.31"/><polygon class="cls-11" points="458 370.24 78 370.24 131.66 299.74 404.34 299.74 458 370.24"/><polygon class="cls-12" points="322.97 359.09 213.03 359.09 216.84 342.56 319.16 342.56 322.97 359.09"/><polygon class="cls-7" points="322.97 359.09 213.03 359.09 216.84 342.56 319.16 342.56 322.97 359.09"/><polygon class="cls-13" points="162.44 316.88 132.28 316.88 136.5 310.78 165.72 310.78 162.44 316.88"/><polygon class="cls-13" points="192.6 316.88 162.44 316.88 165.72 310.78 194.94 310.78 192.6 316.88"/><polygon class="cls-13" points="222.76 316.88 192.6 316.88 194.94 310.78 224.17 310.78 222.76 316.88"/><polygon class="cls-13" points="252.92 316.88 222.76 316.88 224.17 310.78 253.39 310.78 252.92 316.88"/><polygon class="cls-13" points="283.08 316.88 252.92 316.88 253.39 310.78 282.61 310.78 283.08 316.88"/><polygon class="cls-13" points="313.24 316.88 283.08 316.88 282.61 310.78 311.83 310.78 313.24 316.88"/><polygon class="cls-13" points="343.4 316.88 313.24 316.88 311.83 310.78 341.06 310.78 343.4 316.88"/><polygon class="cls-13" points="373.56 316.88 343.4 316.88 341.06 310.78 370.28 310.78 373.56 316.88"/><polygon class="cls-13" points="403.72 316.88 373.56 316.88 370.28 310.78 399.5 310.78 403.72 316.88"/><polygon class="cls-13" points="158.95 323.38 127.79 323.38 132.28 316.88 162.44 316.88 158.95 323.38"/><polygon class="cls-13" points="190.1 323.38 158.95 323.38 162.44 316.88 192.6 316.88 190.1 323.38"/><polygon class="cls-13" points="221.26 323.38 190.1 323.38 192.6 316.88 222.76 316.88 221.26 323.38"/><polygon class="cls-13" points="252.42 323.38 221.26 323.38 222.76 316.88 252.92 316.88 252.42 323.38"/><polygon class="cls-13" points="283.58 323.38 252.42 323.38 252.92 316.88 283.08 316.88 283.58 323.38"/><polygon class="cls-13" points="314.74 323.38 283.58 323.38 283.08 316.88 313.24 316.88 314.74 323.38"/><polygon class="cls-13" points="345.9 323.38 314.74 323.38 313.24 316.88 343.4 316.88 345.9 323.38"/><polygon class="cls-13" points="377.05 323.38 345.9 323.38 343.4 316.88 373.56 316.88 377.05 323.38"/><polygon class="cls-13" points="408.21 323.38 377.05 323.38 373.56 316.88 403.72 316.88 408.21 323.38"/><polygon class="cls-13" points="155.21 330.32 122.98 330.32 127.79 323.38 158.95 323.38 155.21 330.32"/><polygon class="cls-13" points="187.44 330.32 155.21 330.32 158.95 323.38 190.1 323.38 187.44 330.32"/><polygon class="cls-13" points="219.66 330.32 187.44 330.32 190.1 323.38 221.26 323.38 219.66 330.32"/><polygon class="cls-13" points="251.89 330.32 219.66 330.32 221.26 323.38 252.42 323.38 251.89 330.32"/><polygon class="cls-13" points="284.11 330.32 251.89 330.32 252.42 323.38 283.58 323.38 284.11 330.32"/><polygon class="cls-13" points="316.34 330.32 284.11 330.32 283.58 323.38 314.74 323.38 316.34 330.32"/><polygon class="cls-13" points="348.56 330.32 316.34 330.32 314.74 323.38 345.9 323.38 348.56 330.32"/><polygon class="cls-13" points="380.79 330.32 348.56 330.32 345.9 323.38 377.05 323.38 380.79 330.32"/><polygon class="cls-13" points="413.01 330.32 380.79 330.32 377.05 323.38 408.21 323.38 413.01 330.32"/><polygon class="cls-13" points="151.21 337.76 117.84 337.76 122.98 330.32 155.21 330.32 151.21 337.76"/><polygon class="cls-13" points="184.58 337.76 151.21 337.76 155.21 330.32 187.44 330.32 184.58 337.76"/><polygon class="cls-13" points="217.95 337.76 184.58 337.76 187.44 330.32 219.66 330.32 217.95 337.76"/><polygon class="cls-13" points="251.32 337.76 217.95 337.76 219.66 330.32 251.89 330.32 251.32 337.76"/><polygon class="cls-13" points="284.68 337.76 251.32 337.76 251.89 330.32 284.11 330.32 284.68 337.76"/><polygon class="cls-13" points="318.05 337.76 284.68 337.76 284.11 330.32 316.34 330.32 318.05 337.76"/><polygon class="cls-13" points="351.42 337.76 318.05 337.76 316.34 330.32 348.56 330.32 351.42 337.76"/><polygon class="cls-13" points="384.79 337.76 351.42 337.76 348.56 330.32 380.79 330.32 384.79 337.76"/><polygon class="cls-13" points="418.16 337.76 384.79 337.76 380.79 330.32 413.01 330.32 418.16 337.76"/><polygon class="cls-14" points="454.68 382.34 81.32 382.34 78 370.24 458 370.24 454.68 382.34"/><path class="cls-15" d="M311.88,193.72a5.88,5.88,0,1,1-5.88-5.88A5.88,5.88,0,0,1,311.88,193.72Z" transform="translate(-38 -63)"/><path class="cls-6" d="M102.79,454.89S87,429.48,109.9,443.28c-1.38-71.25,21.1-23.42,15.27-3.1,26.1-67.29,29-13.72,11.88,3.64,32.87-28.63,8.48,11.07,8.48,11.07H102.79" transform="translate(-38 -63)"/><path class="cls-5" d="M116.68,408.6s0,2.77,0,6.93c0,2.08,0,4.5,0,7.1s.08,5.37.18,8.13c.06,1.39.12,2.77.18,4.13s.14,2.7.27,4,.19,2.54.35,3.72.25,2.3.45,3.32.29,2,.52,2.78.32,1.55.54,2.11c.41,1.14.65,1.79.65,1.79l-.74-1.76a21.38,21.38,0,0,1-.65-2.09,25.11,25.11,0,0,1-.64-2.78c-.23-1-.36-2.14-.54-3.32s-.29-2.43-.43-3.73-.2-2.64-.31-4-.14-2.75-.22-4.14c-.07-2.77-.11-5.55-.11-8.15s.08-5,.15-7.11.18-3.81.24-5S116.68,408.6,116.68,408.6Z" transform="translate(-38 -63)"/><path class="cls-5" d="M143.93,411l-.09.47c-.08.3-.19.75-.33,1.31-.31,1.13-.72,2.74-1.31,4.64s-1.27,4.14-2.07,6.5-1.71,4.86-2.64,7.35c-.5,1.24-1,2.48-1.49,3.68s-1,2.4-1.53,3.53-1,2.24-1.56,3.25-1,2-1.52,2.84a26.79,26.79,0,0,1-1.43,2.33c-.48.66-.83,1.27-1.22,1.71L127.56,450l1.1-1.45c.37-.45.69-1.09,1.13-1.76s.84-1.5,1.32-2.37.94-1.84,1.43-2.87,1-2.14,1.48-3.27,1-2.33,1.49-3.53,1-2.45,1.45-3.68c1-2.48,1.88-5,2.71-7.31s1.61-4.54,2.23-6.43,1.17-3.47,1.52-4.57l.39-1.29C143.89,411.14,143.93,411,143.93,411Z" transform="translate(-38 -63)"/><path class="cls-5" d="M150.43,438.22a19,19,0,0,1-1.23,2.59,28.91,28.91,0,0,1-1.57,2.5,32.94,32.94,0,0,1-2.11,2.64,25.44,25.44,0,0,1-2.46,2.33,11.67,11.67,0,0,1-1.25.94c-.41.27-.78.55-1.17.76s-.72.4-1,.57l-.83.37-.72.3.67-.4.78-.45,1-.66c.36-.22.71-.53,1.1-.82s.77-.64,1.17-1a24.63,24.63,0,0,0,2.36-2.33,32.81,32.81,0,0,0,2.13-2.56c.64-.85,1.23-1.65,1.69-2.36C149.88,439.23,150.43,438.22,150.43,438.22Z" transform="translate(-38 -63)"/><path class="cls-5" d="M103.56,443.15a3.05,3.05,0,0,1,.45.16,7.06,7.06,0,0,1,1.11.62,11.66,11.66,0,0,1,1.41,1.12,15.39,15.39,0,0,1,1.42,1.48,21.38,21.38,0,0,1,2.19,3.15c.27.44.44.85.59,1.11l.2.43s-.44-.54-1.06-1.37c-.31-.41-.68-.88-1.08-1.39s-.82-1-1.27-1.56-.89-1-1.34-1.5a17.46,17.46,0,0,0-1.25-1.22A9.07,9.07,0,0,0,103.56,443.15Z" transform="translate(-38 -63)"/><path class="cls-8" d="M352.05,166.33h43.88s-.05-11-11.19-7.26-8.16-8.87-22.3-7.91C349.53,152,343,161.15,352.05,166.33Z" transform="translate(-38 -63)"/><path class="cls-8" d="M315.12,137.5h48.93s-3.77-8.06-8.86-4-5.29-13.63-15.61-6.32S311.59,107,315.12,137.5Z" transform="translate(-38 -63)"/><path class="cls-16" d="M423.86,309.31s-7.13-.46-7.46,6.23-6.39,3.15-5.3,10.06-6.69,4.19-4.67,12.7,3.86,23.14,16.09,23.61,26.24-3.74,21.57-13.23,3.36-14.68-6.57-21.81S424.48,318,423.86,309.31Z" transform="translate(-38 -63)"/><path class="cls-17" d="M386.76,324.43c-.24-.17-.54-.6-1-.57-.82.07-1.31.77-1.87.66s1.34-.87-1.39-1.81c-1.5-.33-2.8-.3-2.87.66-1.32,3.23-4.52,7.81,3,8.42l2.92.24S388.19,325.44,386.76,324.43Z" transform="translate(-38 -63)"/><path class="cls-17" d="M386.36,329l-2.46.69s.34,4.11,1.2,9.12a9.76,9.76,0,0,0,4.63-1.74Z" transform="translate(-38 -63)"/><path class="cls-18" d="M411.65,333.2l-17.11,15.37-4.81-11.5a9.76,9.76,0,0,1-4.63,1.74c1.25,7.21,3.61,16.26,7.65,17.55,6.84,2.18,19.61-12.58,19.61-12.58Z" transform="translate(-38 -63)"/><rect class="cls-19" x="382.27" y="307.43" width="1.97" height="36.31" transform="translate(113.03 -183.47) rotate(22.15)"/><path class="cls-20" d="M411.26,268.32l-7.4-3c-5.89-2.4-15,6.33-20.36,19.49s-4.93,25.77,1,28.17l7.4,3c5.89,2.4,15-6.33,20.37-19.49S417.15,270.72,411.26,268.32Z" transform="translate(-38 -63)"/><ellipse class="cls-8" cx="394.16" cy="289.14" rx="25.73" ry="11.52" transform="matrix(0.38, -0.93, 0.93, 0.38, -60.25, 482.2)"/><path class="cls-21" d="M385.57,285.64c4.71-11.57,14.4-18.86,20.18-19a5.52,5.52,0,0,0-1.89-1.3c-5.89-2.4-15,6.33-20.36,19.49s-4.93,25.77,1,28.17a5.39,5.39,0,0,0,2.26.38C382.7,309.2,380.86,297.22,385.57,285.64Z" transform="translate(-38 -63)"/><rect class="cls-20" x="379.14" y="313.96" width="2.93" height="36.31" transform="translate(115.29 -181.98) rotate(22.15)"/><path class="cls-17" d="M386.76,324.43c-.24-.17-.54-.6-1-.57-.82.07-1.31.77-1.87.66s1.34-.87-1.39-1.81c-1.5-.33-2.8-.3-2.87.66-1.32,3.23-3.92,5.78,3.56,6.39l2.32,2.27S388.19,325.44,386.76,324.43Z" transform="translate(-38 -63)"/><path class="cls-5" d="M378.84,328.41a3.31,3.31,0,0,1,.55.06,5.22,5.22,0,0,1,1.12.32,5.47,5.47,0,0,1,1,.55,2.7,2.7,0,0,1,.43.35,4,4,0,0,1-.55-.05,6,6,0,0,1-1.12-.33,5.47,5.47,0,0,1-1-.55A2.7,2.7,0,0,1,378.84,328.41Z" transform="translate(-38 -63)"/><path class="cls-5" d="M379.41,327a3.31,3.31,0,0,1,.55.06,5.22,5.22,0,0,1,1.12.32,5.42,5.42,0,0,1,1,.55,2.7,2.7,0,0,1,.43.35,4,4,0,0,1-.55,0,5.3,5.3,0,0,1-1.12-.33,5.47,5.47,0,0,1-1-.55A3.42,3.42,0,0,1,379.41,327Z" transform="translate(-38 -63)"/><path class="cls-5" d="M380,325.6a2.67,2.67,0,0,1,.55,0,5.51,5.51,0,0,1,2.15.87,5,5,0,0,1,.43.35,4,4,0,0,1-.55-.05,6,6,0,0,1-1.13-.32,5.62,5.62,0,0,1-1-.56A3.07,3.07,0,0,1,380,325.6Z" transform="translate(-38 -63)"/><path class="cls-5" d="M380.56,324.19a2.67,2.67,0,0,1,.55.05,5.87,5.87,0,0,1,1.12.32,6.12,6.12,0,0,1,1,.55,3.56,3.56,0,0,1,.43.35,2.67,2.67,0,0,1-.55,0,5.87,5.87,0,0,1-1.12-.32,6.11,6.11,0,0,1-1-.56A3.07,3.07,0,0,1,380.56,324.19Z" transform="translate(-38 -63)"/><path class="cls-17" d="M383.8,324.63c-1.34-.63-2.81,1.53.55,2.06-1.17,1.31-1.7,2.72-.45,3" transform="translate(-38 -63)"/><path class="cls-5" d="M383.8,324.63a1.33,1.33,0,0,0-.56,0,1.08,1.08,0,0,0-.46.21.67.67,0,0,0-.25.38.45.45,0,0,0,.06.39.94.94,0,0,0,.31.32,2.12,2.12,0,0,0,.45.23,6.6,6.6,0,0,0,1,.28l.48.1-.32.36a6.83,6.83,0,0,0-1,1.43,1.41,1.41,0,0,0-.18.79.82.82,0,0,0,.56.59.94.94,0,0,1-.46-.13.89.89,0,0,1-.35-.39,1.65,1.65,0,0,1,.05-1,4.78,4.78,0,0,1,1-1.65l.16.46a5.41,5.41,0,0,1-1.16-.32,2.06,2.06,0,0,1-.55-.33,1.29,1.29,0,0,1-.43-.54.88.88,0,0,1,0-.71,1,1,0,0,1,.45-.5,1.22,1.22,0,0,1,.62-.13A1.17,1.17,0,0,1,383.8,324.63Z" transform="translate(-38 -63)"/><path class="cls-17" d="M404.36,467.19l.16-.21a101.48,101.48,0,0,0-.7-13.24l4.39,2s.45,6.1,1.44,11.32C408.16,468.3,406.24,468.12,404.36,467.19Z" transform="translate(-38 -63)"/><path class="cls-5" d="M397,472.75c-.59-3.45,5.64-3.51,7.34-5.56,1.88.93,3.8,1.11,5.29-.17a5.44,5.44,0,0,0,.44,1.05c1.47,2.68.21,3.46-2.41,3.76C403.55,472.3,397.3,474.32,397,472.75Z" transform="translate(-38 -63)"/><path class="cls-17" d="M430.53,466.86a2.41,2.41,0,0,0,.08-.25,101.62,101.62,0,0,0-5.31-12.15l4.8.29s2.57,5.56,5.32,10.1C434.47,466.57,432.61,467.07,430.53,466.86Z" transform="translate(-38 -63)"/><path class="cls-5" d="M425.61,474.64c-1.77-3,4.05-5.26,4.92-7.78,2.08.21,3.94-.29,4.89-2a7.1,7.1,0,0,0,.78.83c2.32,2,1.41,3.16-.93,4.36C431.57,471.93,426.42,476,425.61,474.64Z" transform="translate(-38 -63)"/><path class="cls-22" d="M411.55,366.84s-11.46,23.86-2.09,51c1,15.1,19.39,45.08,19.39,45.08l6.55-2.57s-3.94-11.9-5.12-16.61c-1.12-4.5-2.42-12.25-5.9-17.64-1.94-3-1.92-6.61-1.41-10.14,2.33-15.92,4.57-24.32,3.85-34.59" transform="translate(-38 -63)"/><path class="cls-22" d="M408.27,373.23l12.26-5.16s8.85,4.86,6.4,17.65c-2.28,11.86-8.88,18-13.82,32.41-.93,2.71-2.52,2.28-2.35,5.14.63,10.38-.83,19.65-.43,28.58l.46,10.16-7.52.36-4-43.39c2-18,4.53-34.51,4.53-34.51s.73-13.78,2.91-17.63" transform="translate(-38 -63)"/><path class="cls-18" d="M432.34,342.63s-7.1,18.75-5.53,28.41c-9,6.51-20.43,3.14-22.68-.45,1.8-15.27,3.26-18.19,3.26-18.19a8.27,8.27,0,0,1,1.45-11.9c2.39-2,2.81-7.3,2.81-7.3S436.27,334.78,432.34,342.63Z" transform="translate(-38 -63)"/><path class="cls-17" d="M423.94,335.56s9.6-15.77,5.22-21.16-9.66-2.18-13.25,4.55,2.15,8.58,2.15,8.58l-2.22,8.37A6.79,6.79,0,0,0,423.94,335.56Z" transform="translate(-38 -63)"/><path class="cls-17" d="M426.7,387.11s-3.86-1-3.88,2.7l-.13,3.75a.78.78,0,0,0,.65.12c.42-.15.45-.82.72-1.82a12.48,12.48,0,0,1,.6-1.72,48.74,48.74,0,0,0,.22,5.8c0,.19.48,2.76,1,1.63a1.5,1.5,0,0,0,.09-.43c.12-1.68.26-3.36.39-5,.1,4,.41,6,1,6.08s.49-.55.5-.85c0-1.75.09-3.49.13-5.24.08.55.43,4.37,1.18,4.37.57,0,.26-1.36.21-1.67-.13-1-.27-2-.41-3.06.2.7.37,1.4.6,2.09A5.2,5.2,0,0,0,430,395c.27.4.56.41.54-.19a14.33,14.33,0,0,0-.8-4.24,22.09,22.09,0,0,0-1.78-3.65" transform="translate(-38 -63)"/><path class="cls-17" d="M430.38,384.08c-1.81,3.42-3.06,5.85-3.06,5.85l-3.06-1.77s.95-2.44,2.12-5.93C427.69,382.86,429,383.49,430.38,384.08Z" transform="translate(-38 -63)"/><path class="cls-18" d="M428.52,375.34a60.21,60.21,0,0,1,6.07-14.26l-9.12-16.94s-.38-7.68,5.16-5.42c10.09,14.59,13.28,20,11.05,25.5-2.87,4.18-8,13.65-11.3,19.86-1.37-.59-2.69-1.22-4-1.85C427.07,380.2,427.83,377.81,428.52,375.34Z" transform="translate(-38 -63)"/><path class="cls-5" d="M423.86,327.83a1.88,1.88,0,0,1-.29.2,4.58,4.58,0,0,1-.85.4,5.56,5.56,0,0,1-1.3.29,5.29,5.29,0,0,1-1.53-.06,5.88,5.88,0,0,1-1.47-.47,6.8,6.8,0,0,1-.6-.36,4.19,4.19,0,0,1-.51-.37,4.35,4.35,0,0,1-.68-.64l-.23-.26.31.18a8.12,8.12,0,0,0,.78.46,4.36,4.36,0,0,0,.53.27l.6.26a8.35,8.35,0,0,0,1.37.38,7.53,7.53,0,0,0,1.41.12,7.62,7.62,0,0,0,1.24-.11A8.12,8.12,0,0,0,423.86,327.83Z" transform="translate(-38 -63)"/><path class="cls-5" d="M421.76,353.89l-.41.31a6.49,6.49,0,0,1-1.17.68c-.26.09-.54.23-.85.32a6.22,6.22,0,0,1-1,.22,6.58,6.58,0,0,1-1.1.06,6.3,6.3,0,0,1-1.13-.17,5.89,5.89,0,0,1-1.09-.39,5.06,5.06,0,0,1-.93-.63,3.91,3.91,0,0,1-.7-.77,4.64,4.64,0,0,1-.43-.82,3,3,0,0,1-.22-.75,2.62,2.62,0,0,1-.06-.59c0-.32,0-.51,0-.51s0,.18.12.5a2,2,0,0,0,.16.55,3.16,3.16,0,0,0,.3.66,3.36,3.36,0,0,0,.47.71,5.33,5.33,0,0,0,.69.64,5.51,5.51,0,0,0,.85.52,5.65,5.65,0,0,0,1,.33,5.27,5.27,0,0,0,1,.17,6.92,6.92,0,0,0,1,0,9.32,9.32,0,0,0,1-.12,8.52,8.52,0,0,0,.84-.22,9.13,9.13,0,0,0,1.22-.48Z" transform="translate(-38 -63)"/><path class="cls-20" d="M420.59,313.09s1.56,4.78,4.05,5.4c.46,5.45,0,9.3,2.72,9.79s1.63,7.33,4.12,8.11,11.67-.64,6.69-8.41,1.25-9-2-13.22S421.21,302.4,420.59,313.09Z" transform="translate(-38 -63)"/><path class="cls-5" d="M408.72,388.9s0,.57-.06,1.56-.05,2.42-.09,4.12,0,3.7-.05,5.83,0,4.4.1,6.67.17,4.54.35,6.66c.07,1.06.2,2.08.29,3.05s.25,1.88.36,2.72.29,1.6.41,2.28a15.57,15.57,0,0,0,.4,1.75c.27,1,.42,1.51.42,1.51l-.51-1.48a15.82,15.82,0,0,1-.5-1.73,23.3,23.3,0,0,1-.53-2.27c-.14-.85-.35-1.75-.46-2.73s-.3-2-.37-3.06c-.2-2.13-.35-4.41-.42-6.68s-.06-4.56,0-6.7.13-4.12.22-5.83C408.46,391.16,408.72,388.9,408.72,388.9Z" transform="translate(-38 -63)"/><path class="cls-5" d="M404.47,377a24.88,24.88,0,0,0,3.41,1.17c.52.14,1.08.29,1.69.41s1.25.22,1.91.33,1.36.16,2.06.21,1.42.06,2.13,0l1.07-.06c.35,0,.7-.1,1.05-.14s.69-.09,1-.17l1-.25a12.38,12.38,0,0,0,1.84-.59l.84-.3.75-.38c.48-.26.94-.45,1.31-.67l.95-.62.85-.54-.78.63-.91.71c-.35.26-.8.49-1.27.77l-.74.43-.84.36a10.3,10.3,0,0,1-1.87.67l-1,.28c-.34.09-.7.13-1.05.19s-.72.13-1.08.17l-1.1.07a19.79,19.79,0,0,1-2.18,0c-.72-.06-1.43-.13-2.11-.24a24,24,0,0,1-3.62-.93,20.54,20.54,0,0,1-2.43-1A9.68,9.68,0,0,1,404.47,377Z" transform="translate(-38 -63)"/><path class="cls-20" d="M416,330.56s-2.66,8.12-8.21,5.06C411.88,331.23,416,330.56,416,330.56Z" transform="translate(-38 -63)"/><path class="cls-20" d="M429.12,330.56s-1.05,12.48,2.11,15.24c2.82,6.93,7.08,9.27,10.36,7.24" transform="translate(-38 -63)"/><path class="cls-5" d="M413.33,327.1a7.23,7.23,0,0,1,.21,1.22,12.43,12.43,0,0,1,0,1.28,8.48,8.48,0,0,1-.19,1.46,5.09,5.09,0,0,1-.51,1.4,3,3,0,0,1-.4.58,3.05,3.05,0,0,1-.46.43,1.79,1.79,0,0,1-.46.26,1.27,1.27,0,0,1-.38.12l-.34,0,.3-.16a.92.92,0,0,0,.32-.19,3.29,3.29,0,0,0,.35-.32,2.68,2.68,0,0,0,.34-.44,4.69,4.69,0,0,0,.28-.55,3.14,3.14,0,0,0,.23-.63,4.84,4.84,0,0,0,.18-.68,13.58,13.58,0,0,0,.24-1.37c.05-.45.11-.87.13-1.23Z" transform="translate(-38 -63)"/><path class="cls-5" d="M425.1,311.75a2,2,0,0,0-.09,2,3.06,3.06,0,0,0,.62.82,5.23,5.23,0,0,0,.83.64l.08,0v.12c.11,1.09.16,2.19.27,3.28s.18,2.17.34,3.25c.08.54.18,1.07.31,1.59A7.4,7.4,0,0,0,428,325a3.37,3.37,0,0,0,.4.68,4.07,4.07,0,0,0,.52.58,2.38,2.38,0,0,0,.7.38,3.38,3.38,0,0,0,.79.19,2.92,2.92,0,0,1-.83-.07,2.79,2.79,0,0,1-.78-.32,3,3,0,0,1-.64-.58,3.77,3.77,0,0,1-.48-.7,8.4,8.4,0,0,1-.64-1.56c-.15-.55-.26-1.09-.36-1.64a30.38,30.38,0,0,1-.37-3.29c-.07-1.1-.14-2.2-.16-3.3l.1.17a6.71,6.71,0,0,1-.85-.75,3.2,3.2,0,0,1-.61-1A2.1,2.1,0,0,1,425.1,311.75Z" transform="translate(-38 -63)"/><path class="cls-5" d="M430.11,314.13a22.27,22.27,0,0,1,1.2,2.41,25.83,25.83,0,0,1,1,2.6,27.92,27.92,0,0,1,.75,3.09c.1.53.13,1.08.18,1.61s0,1.07,0,1.58a13.57,13.57,0,0,1-.14,1.47c-.09.46-.21.89-.3,1.28a9.74,9.74,0,0,1-.42,1,3.82,3.82,0,0,1-.42.74l-.42.61.32-.66a3.78,3.78,0,0,0,.33-.77c.08-.31.21-.66.3-1s.15-.81.2-1.26.06-.93.06-1.42,0-1-.08-1.53-.11-1-.21-1.56a28.33,28.33,0,0,0-.66-3.05c-.27-1-.53-1.86-.79-2.61C430.51,315.13,430.11,314.13,430.11,314.13Z" transform="translate(-38 -63)"/><path class="cls-5" d="M436.55,329.69a6.64,6.64,0,0,1,.73.86,11.28,11.28,0,0,1,.62,1,10.38,10.38,0,0,1,.57,1.21,8.92,8.92,0,0,1,.39,1.28,7.48,7.48,0,0,1,.13,1.16,4.63,4.63,0,0,1-.05.83c0,.19-.06.3-.06.3l-.05-.3c0-.2-.1-.47-.15-.79s-.19-.69-.31-1.07-.27-.8-.43-1.21c-.32-.81-.66-1.62-.94-2.23S436.55,329.69,436.55,329.69Z" transform="translate(-38 -63)"/><path class="cls-5" d="M435.27,333.44c-.44,1.69-.86,3.39-1.21,5.1-.16.85-.31,1.71-.4,2.56a6.78,6.78,0,0,0,0,1.27c0,.39.16.83.36.87l.12,0,.05.13c.2.49.4,1,.56,1.49l.47,1.5a15,15,0,0,0,1.08,2.88c.12.23.27.42.4.63a3.18,3.18,0,0,0,.53.51,2,2,0,0,0,.64.36,2.18,2.18,0,0,0,.72.18,3.74,3.74,0,0,0,.75,0,4,4,0,0,0,.77-.09,11.55,11.55,0,0,0,1.51-.39l-.72.3a4.19,4.19,0,0,1-.76.24,3.39,3.39,0,0,1-.78.17,3.05,3.05,0,0,1-.8,0,2.52,2.52,0,0,1-.81-.15,2.34,2.34,0,0,1-.74-.37,3.66,3.66,0,0,1-.63-.55c-.16-.22-.34-.43-.48-.66a9.62,9.62,0,0,1-.68-1.46c-.19-.5-.35-1-.51-1.5-.32-1-.64-2-1-2.94l.17.16a1,1,0,0,1-.59-.65,3.08,3.08,0,0,1-.14-.71,7.66,7.66,0,0,1,.06-1.36,18.66,18.66,0,0,1,.5-2.6A41.18,41.18,0,0,1,435.27,333.44Z" transform="translate(-38 -63)"/><path class="cls-5" d="M430.58,332.12s-.1.46-.22,1.15a18.75,18.75,0,0,0-.27,2.51,11.83,11.83,0,0,0,0,1.34,9,9,0,0,0,.16,1.16c.08.33.14.62.21.81s.09.32.09.32l-.19-.27a4,4,0,0,1-.41-.77,4.94,4.94,0,0,1-.2-.55,3.15,3.15,0,0,1-.15-.64,6.51,6.51,0,0,1-.1-1.41,7.88,7.88,0,0,1,.17-1.41,8.17,8.17,0,0,1,.36-1.17A5.56,5.56,0,0,1,430.58,332.12Z" transform="translate(-38 -63)"/><path class="cls-5" d="M427.54,310.73a11.7,11.7,0,0,1,1.63.59c.48.21,1,.47,1.6.79a14.63,14.63,0,0,1,1.71,1.15,8.83,8.83,0,0,1,1.47,1.46,4.5,4.5,0,0,1,.54.8,4.9,4.9,0,0,1,.35.79,2.18,2.18,0,0,1,.16.71,1.8,1.8,0,0,1,0,.56c0,.3,0,.47,0,.47l-.06-.47a1.57,1.57,0,0,0-.11-.52,5.14,5.14,0,0,0-.25-.63,4.17,4.17,0,0,0-.41-.69,9.14,9.14,0,0,0-1.25-1.38,8.32,8.32,0,0,0-.77-.66c-.52-.42-1.08-.81-1.61-1.16s-1-.68-1.48-.94C428.14,311.07,427.54,310.73,427.54,310.73Z" transform="translate(-38 -63)"/><path class="cls-5" d="M405.77,349.22a2.46,2.46,0,0,1-.28-.58,3.66,3.66,0,0,1-.18-1.7,5.12,5.12,0,0,1,.9-2.27,6.85,6.85,0,0,1,.9-1.05c.33-.35.66-.64,1-1a21.26,21.26,0,0,0,3-4c.68-1.2,1.05-2.05,1.05-2.05a11.69,11.69,0,0,1-.77,2.19,16.15,16.15,0,0,1-1.15,2.11,14.15,14.15,0,0,1-1.71,2.17c-.32.33-.69.65-1,1a7,7,0,0,0-.87.95,5,5,0,0,0-1,2,4,4,0,0,0,0,1.62A3.77,3.77,0,0,0,405.77,349.22Z" transform="translate(-38 -63)"/><ellipse class="cls-23" cx="155.59" cy="410.13" rx="37.9" ry="4.85"/><path class="cls-24" d="M174,468l-1.34,4.93a1.32,1.32,0,0,0,1.28,1.67h14.5a1.32,1.32,0,0,0,1.26-1.72L187.79,467a1.32,1.32,0,0,0-1.38-.92l-11.3,1A1.34,1.34,0,0,0,174,468Z" transform="translate(-38 -63)"/><path class="cls-25" d="M187.24,466.24l-8.94.8a1.34,1.34,0,0,0-1.16,1l-1.34,4.93a1.32,1.32,0,0,0,1.27,1.67h-3.18a1.32,1.32,0,0,1-1.28-1.67L174,468a1.34,1.34,0,0,1,1.16-1l11.3-1A1.27,1.27,0,0,1,187.24,466.24Z" transform="translate(-38 -63)"/><path class="cls-24" d="M194.46,467.12v5.5a1.17,1.17,0,0,0,1.14,1.18l18.35.69c1.1,0,1.48-1.16.85-2.06-2.14-3-6.73-6.18-6.73-6.18a1.13,1.13,0,0,0-.8-.32H195.64A1.18,1.18,0,0,0,194.46,467.12Z" transform="translate(-38 -63)"/><path class="cls-25" d="M214.49,474.39a1,1,0,0,1-.54.1l-18.35-.68a1.2,1.2,0,0,1-1.15-1.19v-5.5a1.19,1.19,0,0,1,1.19-1.19h3.19a1.19,1.19,0,0,0-1.19,1.19v5.5a1.2,1.2,0,0,0,1.15,1.19Z" transform="translate(-38 -63)"/><path class="cls-26" d="M169.44,413.35c.13,3.13,1.58,38.49,3.46,53.6a2.18,2.18,0,0,0,1.79,1.88,40.23,40.23,0,0,0,12.89.08,2.69,2.69,0,0,0,2.22-2.44l2.66-37.15a.22.22,0,0,1,.43,0c.24,8.26.72,26.39.7,37.12a2.44,2.44,0,0,0,1.91,2.38,32,32,0,0,0,13.37-.19,2.6,2.6,0,0,0,2-2.21c1-8,5.15-42.05,3.18-53.76a.22.22,0,0,0-.22-.18l-44.16.63A.21.21,0,0,0,169.44,413.35Z" transform="translate(-38 -63)"/><path class="cls-27" d="M197.15,468.83a21.94,21.94,0,0,0,4.92.61,27.3,27.3,0,0,1-6.57-.61,2.44,2.44,0,0,1-1.91-2.38c0-5.75-.12-13.63-.29-21l-.41-16.14c0-.28.89-1.14,1,0,1.12,8.19,1.49,26.36,1.47,37.09A2.4,2.4,0,0,0,197.15,468.83Z" transform="translate(-38 -63)"/><path class="cls-27" d="M178.13,468.83a36.37,36.37,0,0,0,4.89.54,41.92,41.92,0,0,1-8.33-.54,2.15,2.15,0,0,1-1.78-1.87c-1.88-15.12-3.35-50.48-3.47-53.61a.21.21,0,0,1,.21-.23l1.86,0,2,0a.2.2,0,0,0-.2.23c.11,3.13,1.44,38.49,3.17,53.61A2.08,2.08,0,0,0,178.13,468.83Z" transform="translate(-38 -63)"/><path class="cls-28" d="M211,413.51s-22.14,3.91-32.35,1.53c-7-1.63-8.49-2-8.73-2.05h0V365.17a27.63,27.63,0,0,1,10.77-7.54l.06,0a25.18,25.18,0,0,1,5-1.34c.6-.09,1.22-.17,1.86-.22.41,0,.84-.06,1.26-.07a16,16,0,0,1,3.62.31l.75.17a20.53,20.53,0,0,1,4.77,1.85h0c.44.23.87.48,1.3.74a37.6,37.6,0,0,1,10.3,9.86Z" transform="translate(-38 -63)"/><path class="cls-8" d="M188.56,444s-11.45,3.87-28.94.71c-.52-3.13-.5-13.14-.4-20.34.05-4.45.14-7.84.14-7.84a2.16,2.16,0,0,1-.59-.9,94.6,94.6,0,0,1-.93-9.81c-.69-14.29.81-39.91,19.27-47C177.11,358.78,191.45,384.23,188.56,444Z" transform="translate(-38 -63)"/><path class="cls-29" d="M198.71,358.78c26,10,22.69,79.11,21.86,84.17a27.92,27.92,0,0,1-16.75,0C200.92,383.24,198.71,358.78,198.71,358.78Z" transform="translate(-38 -63)"/><path class="cls-8" d="M199.62,358.78c26,10,22.69,79.11,21.86,84.17a27.93,27.93,0,0,1-16.75,0C201.83,383.24,199.62,358.78,199.62,358.78Z" transform="translate(-38 -63)"/><path class="cls-29" d="M192.49,361.27l1.85,3.53,5.06-5.61c-.43-.3-.86-.59-1.3-.87h0a20.53,20.53,0,0,0-4.77-1.85,9.63,9.63,0,0,1-1.05,2.66,3.89,3.89,0,0,1-.28.39l-.09-.07-.16.15a2.22,2.22,0,0,1-2,.53,4,4,0,0,1-1.08-.39,4.79,4.79,0,0,1-.92-.62,4.32,4.32,0,0,1-.61-.6l0,0a12.12,12.12,0,0,1-1.32-2.27,25.18,25.18,0,0,0-5,1.34l5.09,7.19.88-1.53a3.34,3.34,0,0,0,.69.74c-.21,3.68-.86,16.2-.45,20.86,0,.48,4,6.24,4.52,6.27s3.08-6,3.09-6.57c0-4.79-2.71-17.19-3.5-20.66A6,6,0,0,0,192.49,361.27Z" transform="translate(-38 -63)"/><path class="cls-30" d="M173.18,391.14c-3.29,6.5-9.17,0-9.17,0-.94,2.8-5.36,11.9-6.17,14.63a94.6,94.6,0,0,0,.93,9.81,2.16,2.16,0,0,0,.59.9s-.09,3.39-.14,7.84c1.58,2.24,6,2.39,8.79,1.36,2.29-.83,1.76-4.71,1.76-4.71l1.48-.38c1.47-.39,0-2.65,0-2.65l2.08-.95C171.47,407.31,172.45,401.07,173.18,391.14Z" transform="translate(-38 -63)"/><path class="cls-31" d="M158.43,414s-3.74,10.06,5.88,10.34c2.77.08,4.44-1.25,4.06-6.46.43.91.71,2.23,1.29,2,1.63-.6-.38-5.91-.38-5.91Z" transform="translate(-38 -63)"/><path class="cls-32" d="M168.39,418.33c.28,4.87-1.38,6.13-4.08,6.05-6.06-.18-6.82-4.22-6.55-7.2.25,2.56,1.71,5.18,6.55,5.32C166.62,422.57,168.17,421.66,168.39,418.33Z" transform="translate(-38 -63)"/><path class="cls-32" d="M169.66,419.93c-.56.21-.84-1-1.25-1.91a14.85,14.85,0,0,0,0-2c.43.91.71,2.22,1.29,2a.92.92,0,0,0,.54-.67C170.38,418.57,170.35,419.67,169.66,419.93Z" transform="translate(-38 -63)"/><path class="cls-32" d="M168.41,418a3,3,0,0,1,0,.31c0-.13,0-.27,0-.41A1,1,0,0,0,168.41,418Z" transform="translate(-38 -63)"/><path class="cls-8" d="M173.54,387.47c-2.93,9.51-1.91,29.08-1.91,29.08-14.27,3.72-16-1.21-16-1.21s-4.53-46.58,21.49-56.56" transform="translate(-38 -63)"/><polygon class="cls-30" points="147.93 325.36 139.11 316.4 142.78 307.64 131.96 305.78 140.73 309.2 137.59 316.67 147.93 325.36"/><path class="cls-31" d="M214.68,348.84c-4.49,5-10.66,6.84-16.57,7.37-1.41.12-2.8.17-4.16.17a1.55,1.55,0,0,1-.07.23c0,.18-.11.37-.17.56a8,8,0,0,1-1,2.07,4.93,4.93,0,0,1-.42.49l-.18.17L192,360a2.45,2.45,0,0,1-2.1.51,4.68,4.68,0,0,1-1.22-.44l-.14-.07a5.7,5.7,0,0,1-.89-.63,6.35,6.35,0,0,1-.7-.67,10,10,0,0,1-1.29-1.82,3.71,3.71,0,0,1-.27-.52.56.56,0,0,1-.09-.17,38.35,38.35,0,0,1-4-.29c-14.28-1.79-17.37-11.16-17.37-11.16s-13,1.13-12.51-12.38c.43-11,10.2-4.79,11,.75-.3-6.73.12-13.57,7.44-19.49s43.58,0,43.58,0S221.11,341.7,214.68,348.84Z" transform="translate(-38 -63)"/><path class="cls-33" d="M152,328.24c-.69-10.41-4.06-28.19,17.86-35.37,24-7.87,41.34,5.54,46.07,4.9a5.74,5.74,0,0,0,4.12-2A1.12,1.12,0,0,1,222,296c2.2,4.36,5.16,16.21-4.91,21.85-13,7.29-43.18-1.17-49.56,2.23-1.59.85-2.51,6.18-2.34,10.33.13,3.35-2.12,3.51-2.69,2.42-1-1.93-1.52-3.44-3-4.58C155.67,325.29,153.71,326.06,152,328.24Z" transform="translate(-38 -63)"/><path class="cls-34" d="M219.28,316.32a15.25,15.25,0,0,1-2.19,1.49c-13,7.28-43.18-1.18-49.56,2.22-1.59.85-2.51,6.18-2.34,10.33.13,3.35-2.12,3.51-2.69,2.42-1-1.94-1.52-3.44-3-4.58-3.82-2.92-5.77-2.14-7.45,0-.67-10.17-3.91-27.38,16.38-34.86-13,8.44-14.65,23.58-9.89,25.89s5.82-1.52,7.75-2.52C176.62,311.4,190.71,322.43,219.28,316.32Z" transform="translate(-38 -63)"/><path class="cls-24" d="M191.86,363h-3.39s-1,16.4-.5,21.89c0,.48,4,6.24,4.51,6.27s3.08-6,3.08-6.57C195.58,379,191.86,363,191.86,363Z" transform="translate(-38 -63)"/><path class="cls-35" d="M194.32,360.56s-.8,3.48-1.84,4.21a6.08,6.08,0,0,1-4,.23c-1.18-.63-3-4.44-3-4.44l2.08-1.2a5,5,0,0,0,2.25,1.14,2.69,2.69,0,0,0,2.81-1.26Z" transform="translate(-38 -63)"/><path class="cls-33" d="M182.31,332.53c.15,1.67-.73,3.11-2,3.22s-2.36-1.15-2.51-2.81.73-3.11,2-3.23S182.15,330.86,182.31,332.53Z" transform="translate(-38 -63)"/><path class="cls-33" d="M210.11,329.51c.15,1.66-.73,3.1-2,3.22s-2.35-1.15-2.51-2.82.73-3.11,2-3.22S210,327.84,210.11,329.51Z" transform="translate(-38 -63)"/><path class="cls-36" d="M187,338.25s10.09.56,16.61-1.08c0,0,1.87,12-7,13S187,338.25,187,338.25Z" transform="translate(-38 -63)"/><circle class="cls-32" cx="138.62" cy="279.46" r="5.29"/><circle class="cls-32" cx="173.31" cy="276.93" r="5.29"/><path class="cls-37" d="M188.52,360l-2.59,3.9-5.15-6.25a23.88,23.88,0,0,1,4.59-1.29,3.71,3.71,0,0,0,.27.52,10,10,0,0,0,1.29,1.82,6.35,6.35,0,0,0,.7.67A5.7,5.7,0,0,0,188.52,360Z" transform="translate(-38 -63)"/><path class="cls-37" d="M199.4,359.06l-5.06,4.83L192,360l.11-.09.18-.17a4.93,4.93,0,0,0,.42-.49,8,8,0,0,0,1-2.07c.06-.19.12-.38.17-.56A22,22,0,0,1,199.4,359.06Z" transform="translate(-38 -63)"/><path class="cls-32" d="M155.71,332.34s1.53-2,4,1.26,2.44,6.36,0,6.2-4.38-3-1.83-4C157.84,335.76,159.67,332.62,155.71,332.34Z" transform="translate(-38 -63)"/><g class="cls-38"><path class="cls-39" d="M177.51,360.59a9.55,9.55,0,0,1,7.2-2.66.93.93,0,0,0,.44-.08q-.21-.37-.36-.69a38.35,38.35,0,0,1-4-.29,9.81,9.81,0,0,0-4.36,2.65c-2.54,2.7-3.48,6.9-2.81,12.47l-.07,0a.5.5,0,0,0-.22.42v.1a5.88,5.88,0,0,0-4.79,3.57c-1.79,4.25.76,10.95,3.37,13.89a3.74,3.74,0,0,0,2.62,1.55,1.83,1.83,0,0,0,.5-.07.78.78,0,0,0,.53-1,.76.76,0,0,0-1-.52c-.24.07-.82-.23-1.54-1-2.23-2.51-4.61-8.68-3.11-12.27a4.4,4.4,0,0,1,3.48-2.61.4.4,0,0,0,.33.11c.34,0,.83-.07,1.42-.09a.5.5,0,0,0,.33-.16c4.15.2,6.14,3.22,7.08,5.83,1.6,4.37.89,8.89.28,9.55a.77.77,0,0,0-.08,1.53,1.42,1.42,0,0,0,1.39-.71c1.34-1.94,1.41-8.5-1-12.89a8.82,8.82,0,0,0-7.72-4.86v-.06c0-.26-.12-.38-.24-.44C174.49,366.77,175.28,363,177.51,360.59Z" transform="translate(-38 -63)"/><path class="cls-39" d="M202,359.83a9.7,9.7,0,0,0-4.35-2.64c-1.41.12-2.8.17-4.16.17-.07.25-.15.52-.24.79a.64.64,0,0,0,.43.09,9.52,9.52,0,0,1,7.2,2.65c2.4,2.54,3.15,6.74,2.24,12.48a.78.78,0,0,0,.64.89h.12a.78.78,0,0,0,.76-.66C205.6,367.38,204.71,362.74,202,359.83Z" transform="translate(-38 -63)"/></g><path class="cls-24" d="M183.59,376.29c2.45,4.39,2.38,10.95,1,12.89a1.42,1.42,0,0,1-1.39.71.77.77,0,0,1,.08-1.53c.61-.66,1.32-5.18-.28-9.55-1-2.79-3.22-6.06-8-5.84-2.35.12-3.91,1-4.64,2.76-1.5,3.59.88,9.76,3.11,12.27.72.8,1.3,1.1,1.55,1a.77.77,0,0,1,.95.53.76.76,0,0,1-.53.95,1.5,1.5,0,0,1-.5.08,3.74,3.74,0,0,1-2.62-1.55c-2.61-2.94-5.16-9.64-3.37-13.89a6,6,0,0,1,5.14-3.63c-.79-5.82.13-10.19,2.75-13a9.81,9.81,0,0,1,4.36-2.65,38.35,38.35,0,0,0,4,.29q.15.31.36.69a.91.91,0,0,1-.44.08,9.55,9.55,0,0,0-7.2,2.66c-2.3,2.45-3.08,6.42-2.32,11.81A8.82,8.82,0,0,1,183.59,376.29Z" transform="translate(-38 -63)"/><path class="cls-24" d="M205.1,372.63a.78.78,0,0,1-.76.66h-.12a.78.78,0,0,1-.64-.89c.92-5.74.16-9.94-2.24-12.48a9.52,9.52,0,0,0-7.2-2.65.64.64,0,0,1-.43-.09c.09-.27.17-.54.24-.79,1.36,0,2.75-.05,4.16-.17a9.7,9.7,0,0,1,4.35,2.64C205.2,361.76,206.09,366.4,205.1,372.63Z" transform="translate(-38 -63)"/><path class="cls-28" d="M173.78,371.46l0,1.35a.41.41,0,0,0,.46.42c.34,0,.83-.07,1.42-.09a.46.46,0,0,0,.44-.54l-.21-1.23c0-.26-.12-.38-.25-.45a1.56,1.56,0,0,0-1.61.13A.49.49,0,0,0,173.78,371.46Z" transform="translate(-38 -63)"/><path class="cls-26" d="M201.64,361.46l34.84,4.5a2.9,2.9,0,0,1,2.47,3.49l-8.8,40.41a2.9,2.9,0,0,1-3.23,2.26l-31.42-4.34a2.91,2.91,0,0,1-2.48-3.26L198.39,364A2.9,2.9,0,0,1,201.64,361.46Z" transform="translate(-38 -63)"/><path class="cls-40" d="M233.23,395.72l-3.08,14.14a2.9,2.9,0,0,1-3.23,2.26l-31.41-4.34a2.9,2.9,0,0,1-2.49-3.26L198.39,364c.21-1.59-4.58,25.16,12.78,33.83C227.78,406.09,233.23,395.72,233.23,395.72Z" transform="translate(-38 -63)"/><path class="cls-39" d="M209.49,361.79l-.2,1.22a1.69,1.69,0,0,0,1.44,1.93l18.63,2.49a1.69,1.69,0,0,0,1.89-1.42l.21-1.4a1.68,1.68,0,0,0-1.45-1.93l-18.65-2.3A1.68,1.68,0,0,0,209.49,361.79Z" transform="translate(-38 -63)"/><circle class="cls-39" cx="172.41" cy="305.78" r="1.14"/><circle class="cls-39" cx="189.18" cy="308.06" r="1.14"/><path class="cls-31" d="M227.43,383.76c-2,1.58-3.07,10.74,4.23,9.43s5.65-9.47,3.59-10S229.39,382.19,227.43,383.76Z" transform="translate(-38 -63)"/><path class="cls-32" d="M236.87,388.47c-.41,2.09-1.88,4.12-5.21,4.72-7.14,1.28-6.24-7.47-4.36-9.31-.68,3.18.17,7.78,5.49,6.83A6.44,6.44,0,0,0,236.87,388.47Z" transform="translate(-38 -63)"/><path class="cls-8" d="M223,342.31s5.77.8,7.61-1.87-1.38-24.17,3.89-32.57c5-8,58.55-11.49,71.11,0s4.08,41.12-.46,46.47-5.35,5.34-14.43,5.07-39.56.72-46.51.09-11-3.4-12.3-11.23S226.4,348.45,223,342.31Z" transform="translate(-38 -63)"/><path class="cls-21" d="M296.73,346.21H267.92a1.47,1.47,0,0,1,0-2.94h28.81a1.47,1.47,0,0,1,0,2.94Z" transform="translate(-38 -63)"/><path class="cls-21" d="M274,316.27H245.18a1.47,1.47,0,0,1,0-2.94H274a1.47,1.47,0,0,1,0,2.94Z" transform="translate(-38 -63)"/><path class="cls-21" d="M296.6,325.32H245.18a1.47,1.47,0,0,1,0-2.94H296.6a1.47,1.47,0,0,1,0,2.94Z" transform="translate(-38 -63)"/><path class="cls-21" d="M296.6,334.36H245.18a1.47,1.47,0,1,1,0-2.94H296.6a1.47,1.47,0,0,1,0,2.94Z" transform="translate(-38 -63)"/><path class="cls-21" d="M262.14,346.21h-17a1.47,1.47,0,0,1,0-2.94h17a1.47,1.47,0,0,1,0,2.94Z" transform="translate(-38 -63)"/><path class="cls-21" d="M296.73,316.27h-17a1.47,1.47,0,1,1,0-2.94h17a1.47,1.47,0,0,1,0,2.94Z" transform="translate(-38 -63)"/><path class="cls-41" d="M215.05,245l-1.7,1.83v4.53h-3.27V235.52h3.27v7.19l1.44-2,4-5.22h4l-5.63,7,5.8,8.81h-3.89Z" transform="translate(-38 -63)"/><path class="cls-41" d="M237.16,251.38h-3.27v-6.8h-6.37v6.8h-3.27V235.52h3.27V242h6.37v-6.43h3.27Z" transform="translate(-38 -63)"/><path class="cls-41" d="M253.05,243.81a9.63,9.63,0,0,1-.83,4.11,6.24,6.24,0,0,1-2.37,2.72,7,7,0,0,1-7,0,6.17,6.17,0,0,1-2.4-2.71,9.13,9.13,0,0,1-.86-4v-.79a9.56,9.56,0,0,1,.84-4.12,6.29,6.29,0,0,1,2.39-2.74,7,7,0,0,1,7,0,6.35,6.35,0,0,1,2.39,2.74,9.55,9.55,0,0,1,.84,4.11Zm-2.57-9.5v.13H248l-1.68-1.58-1.67,1.58h-2.47v-.17l3.23-3h1.83Zm-.74,8.78a6.63,6.63,0,0,0-.9-3.79,2.89,2.89,0,0,0-2.55-1.3,2.94,2.94,0,0,0-2.54,1.28,6.71,6.71,0,0,0-.9,3.76v.77a6.8,6.8,0,0,0,.89,3.77,2.93,2.93,0,0,0,2.58,1.34,2.88,2.88,0,0,0,2.52-1.29,6.74,6.74,0,0,0,.9-3.77Z" transform="translate(-38 -63)"/><path class="cls-41" d="M268.33,251.38h-3.27l-6.37-10.44v10.44h-3.27V235.52h3.27L265.07,246V235.52h3.26Z" transform="translate(-38 -63)"/><path class="cls-41" d="M283.74,249.38a5.72,5.72,0,0,1-2.5,1.64,10.4,10.4,0,0,1-3.57.58,7.1,7.1,0,0,1-3.62-.9,6,6,0,0,1-2.39-2.61,9,9,0,0,1-.87-4V243a9.82,9.82,0,0,1,.8-4.11,6,6,0,0,1,2.31-2.66,7.62,7.62,0,0,1,8,.42,5.8,5.8,0,0,1,1.89,3.92h-3.19a2.72,2.72,0,0,0-3-2.62,2.88,2.88,0,0,0-2.54,1.25,6.61,6.61,0,0,0-.89,3.73v1a6.29,6.29,0,0,0,.95,3.77,3.24,3.24,0,0,0,2.78,1.27,3.66,3.66,0,0,0,2.63-.78v-2.74h-3v-2.4h6.25Z" transform="translate(-38 -63)"/><path class="cls-41" d="M303.23,238.16h-4.86v13.22H295.1V238.16h-4.79v-2.64h12.92Z" transform="translate(-38 -63)"/><path class="cls-41" d="M308.5,234.61h-2.58l-3-3.38h3.44Zm.07,16.77H305.3V235.52h3.27Z" transform="translate(-38 -63)"/><path class="cls-41" d="M315.87,235.52,320,247l4.05-11.5h4.29v15.86H325v-4.33l.33-7.49-4.28,11.82h-2.25l-4.27-11.81.33,7.48v4.33H311.6V235.52Z" transform="translate(-38 -63)"/><path class="cls-41" d="M348,238.16h-4.86v13.22h-3.27V238.16h-4.8v-2.64H348Z" transform="translate(-38 -63)"/><path class="cls-41" d="M362.77,251.38H359.5v-6.8h-6.37v6.8h-3.27V235.52h3.27V242h6.37v-6.43h3.27Z" transform="translate(-38 -63)"/><path class="cls-41" d="M374.78,248.11h-5.73L368,251.38h-3.48l5.91-15.86h3l5.94,15.86h-3.48Zm-3.74-16h1.78l3.11,2.5h-2.36l-1.64-1.38-1.65,1.38h-2.34Zm-1.11,13.32h4l-2-5.94Zm7-15.24h2.51l-2.47,3h-1.82Z" transform="translate(-38 -63)"/><path class="cls-41" d="M384.68,242.67l3.3-7.15h3.57l-5.21,10.11v5.75H383v-5.75l-5.21-10.11h3.59Z" transform="translate(-38 -63)"/><path class="cls-41" d="M255,265h-4.86v13.21H246.9V265h-4.8V262.3H255Z" transform="translate(-38 -63)"/><path class="cls-41" d="M269.8,278.16h-3.27v-6.8h-6.37v6.8h-3.27V262.3h3.27v6.43h6.37V262.3h3.27Z" transform="translate(-38 -63)"/><path class="cls-41" d="M285.69,270.59a9.49,9.49,0,0,1-.83,4.11,6.19,6.19,0,0,1-2.37,2.72,7,7,0,0,1-7.05,0,6.32,6.32,0,0,1-2.4-2.7,9.34,9.34,0,0,1-.86-4.05v-.79a9.56,9.56,0,0,1,.84-4.12,6.35,6.35,0,0,1,2.39-2.74,7,7,0,0,1,7,0,6.35,6.35,0,0,1,2.39,2.74,9.55,9.55,0,0,1,.84,4.11Zm-2.57-9.5v.13h-2.51l-1.67-1.58-1.68,1.58h-2.47v-.17l3.23-3h1.83Zm-.74,8.78a6.72,6.72,0,0,0-.89-3.79,3.16,3.16,0,0,0-5.09,0,6.62,6.62,0,0,0-.91,3.76v.77a6.71,6.71,0,0,0,.9,3.77,3.13,3.13,0,0,0,5.1.05,6.83,6.83,0,0,0,.89-3.77Z" transform="translate(-38 -63)"/><path class="cls-41" d="M301,278.16H297.7l-6.36-10.44v10.44h-3.27V262.3h3.27l6.37,10.46V262.3H301Z" transform="translate(-38 -63)"/><path class="cls-41" d="M316.38,276.16a5.72,5.72,0,0,1-2.5,1.64,10.36,10.36,0,0,1-3.57.58,7.06,7.06,0,0,1-3.61-.9,6,6,0,0,1-2.4-2.61,9.3,9.3,0,0,1-.87-4v-1.08a9.82,9.82,0,0,1,.8-4.11,6,6,0,0,1,2.31-2.66,6.72,6.72,0,0,1,3.54-.92,6.61,6.61,0,0,1,4.41,1.35,5.75,5.75,0,0,1,1.89,3.91H313.2a3.16,3.16,0,0,0-1-2,3.08,3.08,0,0,0-2.05-.63,2.89,2.89,0,0,0-2.54,1.25,6.54,6.54,0,0,0-.88,3.73v1a6.3,6.3,0,0,0,.94,3.77,3.26,3.26,0,0,0,2.78,1.28,3.64,3.64,0,0,0,2.63-.79v-2.73h-3v-2.41h6.25Z" transform="translate(-38 -63)"/><path class="cls-41" d="M335.87,265H331v13.21h-3.27V265H323V262.3h12.92Z" transform="translate(-38 -63)"/><path class="cls-41" d="M341.21,278.16h-3.27V262.3h3.27Z" transform="translate(-38 -63)"/><path class="cls-41" d="M357.14,278.16h-3.26l-6.37-10.44v10.44h-3.27V262.3h3.27l6.38,10.46V262.3h3.25Z" transform="translate(-38 -63)"/></g></g></svg>